<?xml version="1.0" encoding="UTF-8" ?>
<!DOCTYPE svg PUBLIC "-//W3C//DTD SVG 1.1//EN" "http://www.w3.org/Graphics/SVG/1.1/DTD/svg11.dtd">
<svg width="260pt" height="44pt" viewBox="0 0 260 44" version="1.1" xmlns="http://www.w3.org/2000/svg">
<g id="#ffffffff">
<path fill="#ffffff" opacity="1.00" d=" M 20.00 0.00 L 28.02 0.00 C 29.24 0.78 30.45 1.60 31.74 2.27 C 33.39 3.70 34.44 5.58 35.42 7.50 C 36.42 8.93 35.78 10.83 33.99 11.14 C 32.43 10.55 31.82 8.97 31.35 7.51 C 30.43 5.45 28.35 4.52 26.46 3.55 C 24.40 2.61 22.23 3.09 20.36 4.23 C 19.87 4.49 18.89 5.02 18.39 5.29 C 17.69 6.40 16.93 7.49 16.16 8.56 C 15.88 10.03 16.41 12.27 14.53 12.85 C 12.56 13.12 10.57 13.01 8.59 13.06 C 7.52 13.89 6.41 14.67 5.25 15.35 C 4.66 16.71 4.07 18.07 3.52 19.45 C 3.05 20.56 3.12 21.65 3.74 22.70 C 3.82 23.18 3.97 24.15 4.04 24.63 C 5.35 26.04 6.77 27.36 8.42 28.36 C 9.06 28.59 10.35 29.05 10.99 29.28 C 10.97 31.35 10.94 33.46 11.48 35.48 C 13.53 39.50 18.36 42.18 22.64 39.87 C 25.75 39.06 26.11 34.70 29.53 34.73 C 29.90 35.19 30.63 36.11 31.00 36.57 C 29.60 38.94 27.72 40.96 25.69 42.80 C 25.00 43.10 23.60 43.70 22.90 44.00 L 15.79 44.00 C 12.10 42.10 8.15 39.05 7.68 34.62 C 7.35 33.56 7.05 32.50 6.79 31.43 C 3.75 29.98 1.55 27.29 0.00 24.38 L 0.00 16.85 C 1.68 14.24 3.42 11.49 6.35 10.13 C 8.45 9.17 10.70 8.84 12.99 8.90 C 13.00 8.29 13.01 7.07 13.02 6.47 C 13.97 4.97 15.02 3.53 16.26 2.25 C 17.55 1.58 18.77 0.77 20.00 0.00 Z" />
<path fill="#ffffff" opacity="1.00" d=" M 135.46 8.82 C 136.83 7.47 138.78 8.15 140.46 8.12 C 140.99 8.43 142.05 9.03 142.57 9.34 C 143.13 9.56 144.24 10.00 144.79 10.22 C 146.00 12.29 146.16 14.62 146.03 16.97 C 144.45 16.99 142.88 17.00 141.31 17.00 C 140.98 15.32 139.75 14.11 138.62 12.91 C 136.59 12.79 134.73 13.54 132.88 14.27 C 132.46 16.74 134.16 18.27 136.53 18.28 C 138.53 19.14 140.77 19.17 142.72 20.19 C 143.47 20.93 144.23 21.66 145.01 22.37 C 144.97 24.09 145.27 25.91 144.41 27.49 C 142.79 30.01 140.67 32.78 137.53 33.30 C 133.84 34.79 129.35 34.35 126.35 31.63 C 126.02 31.10 125.36 30.03 125.04 29.50 C 125.02 28.03 125.03 26.57 125.06 25.11 C 126.62 25.05 128.19 25.01 129.75 24.99 C 130.12 26.31 129.79 28.37 131.48 28.89 C 133.14 29.13 134.83 28.98 136.51 28.94 C 137.12 28.62 138.35 27.98 138.97 27.66 C 139.01 27.06 139.09 25.86 139.14 25.25 C 137.60 23.72 135.31 24.26 133.53 23.28 C 132.05 22.93 130.65 22.36 129.23 21.85 C 126.83 20.20 126.29 17.10 127.60 14.58 C 129.40 11.85 131.74 8.45 135.46 8.82 Z" />
<path fill="#ffffff" opacity="1.00" d=" M 85.18 9.00 C 90.80 9.00 96.41 9.00 102.03 9.00 C 102.01 10.64 101.98 12.29 101.95 13.93 C 97.97 14.12 93.98 13.83 90.00 14.10 C 88.32 14.52 89.29 16.90 88.90 18.12 C 92.33 18.12 95.77 18.11 99.20 18.19 C 99.00 19.88 98.35 21.45 97.77 23.03 C 94.66 23.07 91.54 22.85 88.43 23.12 C 85.78 24.19 88.00 27.78 86.09 29.50 C 86.03 30.67 85.99 31.83 85.95 33.00 C 83.92 33.00 81.88 33.00 79.85 32.99 C 79.77 31.67 80.12 30.51 80.88 29.50 C 81.00 28.18 81.10 26.87 81.23 25.56 C 82.13 24.38 81.96 22.86 82.17 21.49 C 83.42 20.11 82.88 18.17 83.10 16.50 C 84.28 15.48 83.90 13.84 84.18 12.48 C 84.79 11.41 85.12 10.25 85.18 9.00 Z" />
<path fill="#ffffff" opacity="1.00" d=" M 111.34 9.00 C 113.56 9.00 115.78 9.00 118.00 9.00 C 118.29 11.46 117.19 14.38 118.88 16.48 C 119.09 18.50 118.56 20.73 119.73 22.54 C 119.87 26.06 120.20 29.56 120.98 33.00 C 119.05 33.00 117.12 33.00 115.19 33.00 C 115.04 31.32 114.62 29.70 114.02 28.14 C 111.47 28.22 108.91 28.32 106.36 28.35 C 106.09 28.86 105.56 29.90 105.29 30.41 C 104.51 34.10 100.50 32.82 97.78 33.07 C 98.34 32.21 98.83 31.32 99.27 30.38 C 99.76 29.45 100.24 28.52 100.71 27.57 C 101.83 25.47 103.46 23.66 104.29 21.39 C 104.53 20.90 105.02 19.92 105.26 19.43 C 105.80 18.51 106.29 17.57 106.72 16.59 C 107.54 15.15 108.54 13.83 109.33 12.38 C 110.15 11.34 110.94 10.28 111.34 9.00 M 112.34 17.01 C 111.68 18.67 110.56 20.07 109.64 21.58 C 109.42 22.18 108.96 23.38 108.74 23.98 C 110.57 24.00 112.41 24.00 114.24 24.00 C 113.16 21.80 112.79 19.42 113.00 16.98 L 112.34 17.01 Z" />
<path fill="#ffffff" opacity="1.00" d=" M 150.02 9.02 C 156.68 8.98 163.35 9.01 170.01 9.00 C 170.00 10.66 169.99 12.31 169.97 13.97 C 167.32 14.00 164.68 14.00 162.04 14.00 C 162.01 14.63 161.93 15.88 161.90 16.51 C 160.44 18.19 161.18 20.51 160.93 22.51 C 159.08 24.01 160.82 26.83 159.17 28.48 C 158.86 29.98 159.38 32.19 157.58 32.91 C 156.05 33.07 154.50 33.01 152.97 33.03 C 153.00 31.54 153.03 30.05 153.11 28.57 C 154.25 27.51 153.91 25.89 154.17 24.52 C 155.41 23.12 154.89 21.18 155.09 19.49 C 156.65 18.08 155.79 15.81 156.03 14.00 C 154.01 14.00 152.00 14.00 149.99 14.00 C 150.00 12.34 150.00 10.68 150.02 9.02 Z" />
<path fill="#ffffff" opacity="1.00" d=" M 172.87 14.43 C 173.23 12.61 172.23 9.17 175.01 9.05 C 180.35 8.89 185.70 9.06 191.05 9.00 C 191.01 9.63 190.94 10.88 190.90 11.51 C 190.60 12.13 189.98 13.38 189.67 14.00 C 185.81 14.00 181.95 14.00 178.08 14.00 C 178.02 15.73 178.20 17.60 176.88 18.96 C 179.83 17.44 183.31 18.22 186.49 18.21 C 189.08 18.88 186.50 21.38 186.80 23.02 C 183.44 23.31 179.82 22.36 176.63 23.54 C 175.32 26.34 175.37 29.55 174.44 32.45 C 172.79 33.42 170.78 32.86 168.98 33.04 C 168.99 31.85 169.02 30.67 169.06 29.49 C 170.98 27.99 169.01 25.01 170.92 23.51 C 170.99 22.19 171.04 20.88 171.12 19.56 C 172.45 18.13 171.58 15.90 172.87 14.43 Z" />
<path fill="#ffffff" opacity="1.00" d=" M 195.03 9.00 C 201.05 9.00 207.06 9.00 213.08 9.00 C 213.01 10.79 213.23 12.73 211.78 14.06 C 208.00 14.02 204.20 13.84 200.43 14.11 C 198.68 14.54 199.16 16.70 198.85 17.99 C 202.59 18.01 206.34 18.00 210.08 18.00 C 209.83 19.65 210.55 22.06 208.59 22.91 C 205.13 23.14 201.66 22.99 198.20 22.94 C 196.80 24.34 196.97 26.29 196.92 28.10 C 200.81 28.09 204.71 28.17 208.60 28.07 C 208.96 28.44 209.68 29.16 210.05 29.53 C 209.07 30.42 208.68 31.57 208.87 33.00 C 202.47 32.98 196.07 33.04 189.67 32.97 C 189.98 32.34 190.59 31.09 190.90 30.47 C 190.96 29.14 191.01 27.82 191.08 26.49 C 192.33 25.51 191.88 23.83 192.16 22.48 C 193.88 20.49 192.13 17.53 193.83 15.52 C 194.11 14.15 193.68 12.47 194.92 11.47 C 194.95 10.85 195.01 9.62 195.03 9.00 Z" />
<path fill="#ffffff" opacity="1.00" d=" M 218.02 9.00 C 224.02 9.00 230.02 9.00 236.03 9.00 C 236.00 10.66 235.99 12.32 235.97 13.98 C 231.73 14.01 227.49 14.00 223.25 13.99 C 222.79 15.34 222.22 16.65 221.75 18.00 C 225.51 18.00 229.27 18.00 233.04 18.00 C 233.00 19.65 232.97 21.29 232.93 22.94 C 228.96 23.04 225.00 23.00 221.04 23.00 C 220.99 23.61 220.91 24.82 220.86 25.43 C 220.57 26.08 219.99 27.38 219.69 28.03 C 224.19 28.09 228.69 28.00 233.18 28.13 C 233.03 29.84 232.35 31.41 231.77 33.01 C 225.44 33.04 219.10 32.90 212.78 33.09 C 214.31 31.58 213.99 29.43 214.12 27.48 C 215.48 24.78 215.66 21.48 216.17 18.48 C 217.85 16.84 216.06 13.99 217.95 12.49 C 217.98 11.33 218.00 10.16 218.02 9.00 Z" />
<path fill="#ffffff" opacity="1.00" d=" M 239.18 9.00 C 245.80 9.00 252.42 9.00 259.05 9.00 C 259.01 9.62 258.94 10.87 258.90 11.49 C 258.59 12.12 257.98 13.37 257.67 14.00 C 255.50 14.00 253.33 14.00 251.16 14.00 C 251.20 15.31 250.85 16.48 250.10 17.50 C 250.03 18.50 249.96 19.50 249.90 20.50 C 248.53 21.83 249.14 23.83 248.90 25.50 C 247.73 26.53 248.09 28.16 247.82 29.52 C 247.22 30.59 246.89 31.76 246.82 33.00 C 244.80 32.99 242.78 32.99 240.76 33.09 C 242.34 31.60 241.97 29.44 242.09 27.49 C 243.34 26.52 242.88 24.84 243.16 23.49 C 244.38 22.12 243.90 20.22 244.12 18.57 C 245.35 17.33 244.91 15.55 245.07 14.01 C 242.65 14.00 240.23 14.00 237.81 13.98 C 238.41 12.36 239.06 10.75 239.18 9.00 Z" />
<path fill="#ffffff" opacity="1.00" d=" M 15.00 15.00 C 30.69 15.00 46.37 15.00 62.06 15.00 C 62.00 15.73 61.89 17.20 61.84 17.93 C 46.23 18.09 30.61 17.96 15.00 18.00 C 15.00 17.25 15.00 15.75 15.00 15.00 Z" />
<path fill="#ffffff" opacity="1.00" d=" M 25.77 24.91 C 26.10 23.72 26.39 21.89 28.05 22.04 C 41.98 21.99 55.93 21.94 69.87 22.09 C 69.91 22.81 70.00 24.27 70.05 24.99 C 55.29 24.95 40.53 25.11 25.77 24.91 Z" />
<path fill="#ffffff" opacity="1.00" d=" M 21.00 32.94 C 18.43 32.86 18.47 29.11 21.03 29.06 C 35.37 28.94 49.72 29.00 64.06 29.03 C 65.81 28.70 66.85 30.22 67.34 31.65 C 66.10 32.73 64.60 33.23 62.95 33.02 C 48.97 32.92 34.98 33.10 21.00 32.94 Z" />
</g>
</svg>
