<?xml version="1.0" encoding="UTF-8" ?>
<!DOCTYPE svg PUBLIC "-//W3C//DTD SVG 1.1//EN" "http://www.w3.org/Graphics/SVG/1.1/DTD/svg11.dtd">
<svg width="520pt" height="88pt" viewBox="0 0 520 88" version="1.1" xmlns="http://www.w3.org/2000/svg">
<g id="#7d40e7ff">
<path fill="#7d40e7" opacity="1.00" d=" M 47.71 0.00 L 48.52 0.00 C 59.19 0.11 69.23 8.23 70.97 18.84 C 70.98 21.48 67.10 23.00 65.73 20.51 C 64.04 16.90 62.92 12.79 59.61 10.23 C 52.23 3.37 38.97 4.96 33.72 13.66 C 31.38 16.82 31.72 20.93 30.39 24.45 C 29.06 26.10 26.69 24.87 24.94 24.94 C 17.10 23.82 9.07 29.14 6.78 36.67 C 4.59 43.30 7.18 51.12 12.85 55.18 C 15.27 57.05 18.35 57.60 21.03 58.96 C 22.95 60.02 21.73 62.44 21.72 64.11 C 20.45 73.33 28.86 81.98 37.96 82.03 C 45.12 82.62 51.70 77.94 54.69 71.63 C 55.75 68.41 61.06 69.78 60.28 73.17 C 57.37 81.71 48.78 87.47 39.91 88.00 L 36.80 88.00 C 28.85 87.19 21.30 82.39 17.79 75.10 C 15.86 71.47 15.50 67.30 15.38 63.26 C 6.77 59.97 0.17 51.66 0.00 42.28 L 0.00 39.83 C 0.71 33.86 3.50 28.06 8.24 24.26 C 12.92 20.14 19.25 18.67 25.36 18.76 C 26.28 15.47 27.33 12.13 29.42 9.35 C 33.53 3.49 40.65 0.26 47.71 0.00 Z" />
<path fill="#7d40e7" opacity="1.00" d=" M 270.47 17.74 C 276.82 16.54 284.43 16.79 289.21 21.76 C 292.08 24.60 292.16 28.88 291.78 32.64 C 288.64 32.64 285.50 32.64 282.37 32.67 C 282.37 30.07 281.70 26.99 278.85 26.17 C 273.94 24.46 266.32 25.34 264.65 31.14 C 264.03 33.26 265.54 35.15 267.53 35.72 C 273.64 38.03 280.61 38.21 286.17 41.88 C 290.25 44.73 289.97 50.50 288.34 54.64 C 285.39 62.40 277.04 66.86 269.02 67.11 C 263.12 67.42 256.18 66.72 252.19 61.81 C 249.73 58.90 249.82 54.90 250.26 51.34 C 253.41 51.34 256.55 51.34 259.69 51.33 C 259.85 53.84 260.01 57.06 262.79 58.11 C 267.08 59.72 272.27 59.51 276.32 57.28 C 278.96 55.78 280.94 51.19 277.89 49.15 C 271.82 45.86 264.37 46.28 258.46 42.61 C 254.93 40.38 254.32 35.69 255.28 31.94 C 256.73 24.61 263.26 19.03 270.47 17.74 Z" />
<path fill="#7d40e7" opacity="1.00" d=" M 170.83 18.56 C 182.06 18.56 193.28 18.56 204.50 18.57 C 203.91 21.34 203.33 24.12 202.74 26.90 C 194.80 26.92 186.86 26.90 178.92 26.91 C 178.15 30.55 177.37 34.19 176.60 37.84 C 183.55 37.84 190.50 37.83 197.45 37.84 C 196.87 40.59 196.29 43.33 195.71 46.08 C 188.76 46.08 181.81 46.08 174.86 46.08 C 173.45 52.72 172.04 59.35 170.64 65.99 C 167.36 66.00 164.07 66.00 160.78 66.00 C 164.13 50.18 167.48 34.37 170.83 18.56 Z" />
<path fill="#7d40e7" opacity="1.00" d=" M 223.21 18.50 C 226.95 18.50 230.69 18.50 234.43 18.50 C 236.67 34.33 238.92 50.17 241.16 66.00 C 237.57 66.00 233.98 66.00 230.40 65.99 C 230.07 62.74 229.73 59.49 229.41 56.24 C 223.57 56.23 217.73 56.24 211.90 56.23 C 210.12 59.49 208.33 62.73 206.57 65.99 C 203.10 66.00 199.64 66.00 196.18 65.99 C 205.19 50.17 214.20 34.33 223.21 18.50 M 216.32 48.04 C 220.34 48.05 224.35 48.05 228.37 48.04 C 227.72 41.82 227.06 35.59 226.40 29.36 C 223.03 35.59 219.68 41.82 216.32 48.04 Z" />
<path fill="#7d40e7" opacity="1.00" d=" M 300.10 26.91 C 300.70 24.11 301.30 21.30 301.90 18.50 C 314.72 18.50 327.55 18.50 340.37 18.50 C 339.77 21.30 339.18 24.10 338.58 26.90 C 333.84 26.91 329.09 26.91 324.35 26.91 C 321.60 39.94 318.84 52.97 316.08 66.00 C 312.75 66.00 309.42 66.00 306.10 66.00 C 308.85 52.97 311.61 39.94 314.37 26.91 C 309.61 26.91 304.86 26.91 300.10 26.91 Z" />
<path fill="#7d40e7" opacity="1.00" d=" M 348.30 18.59 C 359.53 18.53 370.77 18.58 382.00 18.57 C 381.42 21.35 380.83 24.13 380.24 26.91 C 372.30 26.91 364.36 26.90 356.42 26.91 C 355.64 30.55 354.87 34.20 354.11 37.84 C 361.05 37.84 368.00 37.83 374.94 37.84 C 374.37 40.59 373.78 43.33 373.21 46.08 C 366.25 46.08 359.30 46.07 352.35 46.09 C 350.95 52.73 349.54 59.36 348.14 66.00 C 344.85 66.00 341.56 66.00 338.28 66.00 C 341.61 50.19 345.01 34.40 348.30 18.59 Z" />
<path fill="#7d40e7" opacity="1.00" d=" M 391.14 18.50 C 402.76 18.50 414.37 18.50 425.99 18.50 C 425.39 21.30 424.78 24.10 424.19 26.91 C 415.81 26.91 407.43 26.91 399.05 26.91 C 398.34 30.27 397.62 33.63 396.93 37.00 C 404.61 37.00 412.30 36.99 419.99 37.00 C 419.40 39.75 418.81 42.50 418.22 45.25 C 410.53 45.25 402.84 45.25 395.15 45.24 C 394.29 49.31 393.43 53.38 392.58 57.46 C 401.34 57.46 410.10 57.46 418.86 57.46 C 418.26 60.31 417.66 63.15 417.06 66.00 C 405.06 66.00 393.07 66.00 381.07 66.00 C 384.43 50.17 387.80 34.34 391.14 18.50 Z" />
<path fill="#7d40e7" opacity="1.00" d=" M 437.40 18.50 C 449.01 18.50 460.62 18.50 472.23 18.50 C 471.64 21.31 471.03 24.11 470.44 26.91 C 462.05 26.91 453.68 26.91 445.30 26.91 C 444.59 30.27 443.88 33.63 443.17 36.99 C 450.86 37.00 458.55 36.99 466.24 37.00 C 465.66 39.75 465.06 42.50 464.47 45.25 C 456.77 45.25 449.08 45.24 441.39 45.25 C 440.54 49.32 439.68 53.39 438.83 57.46 C 447.59 57.46 456.35 57.45 465.11 57.46 C 464.51 60.31 463.91 63.15 463.32 65.99 C 451.32 66.01 439.32 66.00 427.33 66.00 C 430.68 50.17 434.04 34.33 437.40 18.50 Z" />
<path fill="#7d40e7" opacity="1.00" d=" M 479.40 18.50 C 492.22 18.50 505.05 18.50 517.87 18.50 C 517.27 21.30 516.67 24.10 516.07 26.91 C 511.33 26.91 506.59 26.91 501.86 26.91 C 499.10 39.94 496.34 52.96 493.59 65.99 C 490.25 66.00 486.92 66.00 483.60 66.00 C 486.35 52.97 489.11 39.94 491.87 26.91 C 487.11 26.91 482.35 26.91 477.60 26.91 C 478.20 24.11 478.79 21.30 479.40 18.50 Z" />
<path fill="#7d40e7" opacity="1.00" d=" M 31.29 30.32 C 31.70 30.25 32.51 30.10 32.91 30.02 C 61.62 29.96 90.33 30.04 119.03 29.98 C 120.56 30.05 123.19 29.94 123.41 32.00 C 124.05 33.44 122.61 35.47 120.99 35.23 C 91.99 35.28 62.98 35.22 33.97 35.26 C 32.58 35.15 30.64 35.53 30.01 33.86 C 29.47 32.59 29.91 30.82 31.29 30.32 Z" />
<path fill="#7d40e7" opacity="1.00" d=" M 53.42 45.34 C 54.69 44.34 56.48 44.92 57.97 44.73 C 84.32 44.80 110.68 44.72 137.04 44.77 C 138.80 44.37 140.04 46.52 139.40 48.00 C 139.42 49.74 137.21 49.68 136.01 49.76 C 109.33 49.73 82.65 49.78 55.97 49.73 C 53.49 50.24 51.62 47.24 53.42 45.34 Z" />
<path fill="#7d40e7" opacity="1.00" d=" M 40.00 60.05 C 40.52 59.92 41.55 59.65 42.07 59.52 C 71.42 59.50 100.77 59.49 130.12 59.52 C 133.08 58.79 134.10 63.44 131.48 64.50 C 129.69 64.85 127.86 64.76 126.05 64.77 C 98.05 64.67 70.05 64.87 42.06 64.68 C 39.63 65.03 38.43 61.68 40.00 60.05 Z" />
</g>
</svg>
