<?xml version="1.0" encoding="UTF-8" ?>
<!DOCTYPE svg PUBLIC "-//W3C//DTD SVG 1.1//EN" "http://www.w3.org/Graphics/SVG/1.1/DTD/svg11.dtd">
<svg width="260pt" height="44pt" viewBox="0 0 260 44" version="1.1" xmlns="http://www.w3.org/2000/svg">
<g id="#7d40e7ff">
<path fill="#7d40e7" opacity="1.00" d=" M 23.47 0.00 L 25.01 0.00 C 29.61 0.52 33.89 3.66 35.20 8.18 C 35.84 9.53 35.43 10.52 33.95 11.14 C 31.91 9.34 31.58 6.25 29.26 4.68 C 25.73 1.85 20.01 2.62 17.26 6.20 C 15.92 8.13 15.62 10.51 14.96 12.71 C 12.45 12.49 9.73 12.06 7.44 13.41 C 3.44 15.51 1.69 21.05 4.09 24.96 C 5.44 27.71 8.53 28.69 11.13 29.85 C 10.70 32.22 10.54 34.78 11.95 36.88 C 14.59 41.86 22.57 42.50 25.84 37.87 C 27.02 36.68 27.77 34.27 29.87 35.15 C 30.46 40.04 24.81 43.33 20.53 44.00 L 18.53 44.00 C 12.22 43.56 7.46 37.87 7.54 31.66 C 3.68 29.87 0.61 26.47 0.00 22.15 L 0.00 20.25 C 0.30 13.85 6.29 9.02 12.55 9.35 C 13.74 4.24 18.13 0.19 23.47 0.00 Z" />
<path fill="#7d40e7" opacity="1.00" d=" M 85.29 9.28 C 90.90 9.28 96.51 9.28 102.13 9.29 C 101.83 10.67 101.53 12.06 101.24 13.45 C 97.27 13.45 93.30 13.46 89.33 13.45 C 88.95 15.28 88.56 17.10 88.18 18.92 C 91.65 18.91 95.12 18.92 98.60 18.92 C 98.31 20.29 98.02 21.66 97.73 23.04 C 94.25 23.03 90.77 23.04 87.29 23.05 C 86.60 26.37 85.89 29.68 85.19 33.00 C 83.55 33.00 81.91 33.00 80.27 33.00 C 81.94 25.09 83.62 17.19 85.29 9.28 Z" />
<path fill="#7d40e7" opacity="1.00" d=" M 111.59 9.26 C 113.46 9.26 115.33 9.25 117.21 9.24 C 118.34 17.16 119.45 25.08 120.58 33.00 C 118.78 33.00 116.99 32.99 115.19 32.99 C 115.03 31.37 114.87 29.75 114.71 28.12 C 111.79 28.12 108.87 28.11 105.96 28.12 C 105.06 29.74 104.16 31.38 103.26 33.00 C 101.54 33.00 99.82 33.00 98.09 32.99 C 102.59 25.08 107.11 17.18 111.59 9.26 M 108.16 24.02 C 110.17 24.02 112.17 24.02 114.18 24.03 C 113.86 20.91 113.54 17.80 113.20 14.69 C 111.51 17.80 109.83 20.91 108.16 24.02 Z" />
<path fill="#7d40e7" opacity="1.00" d=" M 127.55 18.05 C 127.07 9.80 138.49 5.83 144.30 10.67 C 145.91 12.12 145.88 14.33 145.92 16.31 C 144.37 16.32 142.83 16.32 141.28 16.32 C 141.32 11.62 133.84 11.77 132.37 15.34 C 131.59 17.66 134.56 18.11 136.15 18.56 C 139.35 19.49 144.46 19.86 144.66 24.18 C 144.72 32.81 132.67 36.24 126.63 31.40 C 125.03 29.92 125.08 27.68 125.12 25.68 C 126.63 25.67 128.15 25.66 129.67 25.65 C 129.63 31.06 138.94 30.75 139.76 26.00 C 139.43 23.81 136.65 23.85 135.00 23.23 C 132.09 22.49 127.70 21.86 127.55 18.05 Z" />
<path fill="#7d40e7" opacity="1.00" d=" M 150.83 9.25 C 157.24 9.25 163.65 9.25 170.06 9.25 C 169.75 10.65 169.45 12.05 169.16 13.45 C 166.79 13.46 164.43 13.45 162.07 13.45 C 160.66 19.96 159.30 26.48 157.92 33.00 C 156.25 33.00 154.59 33.00 152.93 33.00 C 154.29 26.48 155.69 19.97 157.06 13.46 C 154.68 13.45 152.30 13.45 149.93 13.45 C 150.23 12.05 150.53 10.65 150.83 9.25 Z" />
<path fill="#7d40e7" opacity="1.00" d=" M 174.05 9.28 C 179.66 9.28 185.27 9.28 190.87 9.28 C 190.57 10.67 190.28 12.06 189.99 13.45 C 186.02 13.45 182.06 13.46 178.09 13.45 C 177.70 15.27 177.31 17.09 176.92 18.92 C 180.40 18.92 183.87 18.92 187.34 18.92 C 187.05 20.29 186.77 21.66 186.48 23.03 C 183.01 23.03 179.53 23.05 176.06 23.04 C 175.35 26.36 174.64 29.68 173.94 33.00 C 172.30 33.00 170.65 33.00 169.02 33.00 C 170.70 25.09 172.35 17.18 174.05 9.28 Z" />
<path fill="#7d40e7" opacity="1.00" d=" M 195.45 9.25 C 201.25 9.24 207.06 9.25 212.87 9.25 C 212.56 10.65 212.26 12.05 211.97 13.45 C 207.77 13.45 203.58 13.45 199.40 13.45 C 199.05 15.14 198.69 16.82 198.34 18.50 C 202.18 18.50 206.03 18.50 209.87 18.50 C 209.57 19.87 209.27 21.25 208.98 22.62 C 205.13 22.62 201.29 22.63 197.46 22.62 C 197.02 24.66 196.59 26.69 196.16 28.73 C 200.54 28.73 204.92 28.73 209.30 28.73 C 209.00 30.15 208.71 31.57 208.42 32.99 C 202.42 33.01 196.42 33.00 190.41 33.00 C 192.09 25.08 193.77 17.17 195.45 9.25 Z" />
<path fill="#7d40e7" opacity="1.00" d=" M 218.70 9.26 C 224.50 9.24 230.31 9.25 236.12 9.25 C 235.81 10.65 235.51 12.05 235.22 13.45 C 231.02 13.46 226.83 13.45 222.64 13.46 C 222.29 15.14 221.94 16.82 221.59 18.49 C 225.43 18.50 229.27 18.50 233.12 18.50 C 232.82 19.88 232.53 21.25 232.24 22.62 C 228.39 22.62 224.55 22.63 220.71 22.62 C 220.27 24.66 219.83 26.69 219.40 28.72 C 223.78 28.73 228.17 28.73 232.55 28.73 C 232.25 30.15 231.96 31.57 231.67 32.99 C 225.67 33.01 219.66 33.00 213.66 33.00 C 215.34 25.08 217.03 17.17 218.70 9.26 Z" />
<path fill="#7d40e7" opacity="1.00" d=" M 239.57 9.26 C 245.98 9.24 252.40 9.25 258.82 9.25 C 258.59 10.30 258.13 12.40 257.91 13.45 C 255.53 13.45 253.17 13.45 250.80 13.46 C 249.42 19.97 248.04 26.48 246.67 32.99 C 245.00 32.99 243.34 32.99 241.68 33.00 C 243.05 26.48 244.44 19.97 245.80 13.46 C 243.43 13.45 241.05 13.45 238.68 13.45 C 238.97 12.05 239.27 10.65 239.57 9.26 Z" />
<path fill="#7d40e7" opacity="1.00" d=" M 15.04 15.12 C 30.41 14.85 45.79 15.07 61.17 15.00 C 61.38 15.51 61.80 16.52 62.00 17.02 C 60.74 17.60 59.36 17.86 57.97 17.77 C 44.32 17.71 30.67 17.78 17.02 17.74 C 15.41 17.96 14.63 16.54 15.04 15.12 Z" />
<path fill="#7d40e7" opacity="1.00" d=" M 26.02 23.99 C 26.84 21.84 29.16 22.29 30.99 22.23 C 43.60 22.37 56.23 22.07 68.84 22.37 C 69.16 22.79 69.81 23.64 70.13 24.06 C 67.89 25.15 65.36 24.68 62.97 24.76 C 52.31 24.76 41.65 24.72 30.99 24.78 C 29.31 24.74 27.50 24.99 26.02 23.99 Z" />
<path fill="#7d40e7" opacity="1.00" d=" M 19.82 29.82 C 35.29 29.78 50.78 29.57 66.24 29.92 C 66.18 30.48 66.06 31.61 66.00 32.18 C 50.61 32.31 35.21 32.29 19.82 32.18 C 19.82 31.59 19.82 30.41 19.82 29.82 Z" />
</g>
</svg>
