<?xml version="1.0" encoding="UTF-8" ?>
<!DOCTYPE svg PUBLIC "-//W3C//DTD SVG 1.1//EN" "http://www.w3.org/Graphics/SVG/1.1/DTD/svg11.dtd">
<svg width="520pt" height="88pt" viewBox="0 0 520 88" version="1.1" xmlns="http://www.w3.org/2000/svg">
<g id="#ffffffff">
<path fill="#ffffff" opacity="1.00" d=" M 43.06 0.00 L 53.24 0.00 C 54.31 0.50 55.40 0.95 56.51 1.35 C 57.89 1.99 59.27 2.64 60.67 3.27 C 64.69 5.64 67.64 9.35 69.72 13.48 C 70.07 14.56 70.47 15.62 70.94 16.66 C 71.29 18.81 71.14 22.49 68.07 22.04 C 64.54 22.31 64.56 17.80 63.41 15.48 C 61.66 12.59 59.22 10.23 56.59 8.15 C 54.92 7.64 53.26 7.10 51.60 6.57 C 47.52 5.11 43.19 6.85 39.46 8.51 C 36.11 10.66 33.66 13.86 32.11 17.50 C 31.99 20.06 31.54 22.59 30.84 25.05 C 28.28 26.71 25.69 24.65 22.99 24.95 C 20.74 24.96 18.62 25.78 16.43 26.17 C 13.34 28.06 10.53 30.43 8.51 33.46 C 7.53 35.32 6.91 37.33 6.55 39.40 C 5.47 42.11 7.04 44.84 7.17 47.58 C 9.05 51.30 11.61 54.68 15.51 56.43 C 17.25 57.08 19.01 57.68 20.79 58.21 C 21.51 59.13 22.22 60.07 22.91 61.01 C 21.35 63.90 21.72 67.37 22.55 70.42 C 24.48 75.06 27.93 78.80 32.50 80.93 C 33.44 81.04 34.38 81.17 35.32 81.30 C 38.64 82.95 42.21 81.35 45.47 80.39 C 48.71 78.95 51.63 76.65 53.29 73.46 C 53.98 71.49 55.44 70.05 57.28 69.11 C 58.13 69.51 59.00 69.90 59.86 70.27 C 60.21 71.60 61.44 72.98 60.36 74.29 C 57.67 79.68 53.18 84.45 47.50 86.66 C 46.32 87.05 45.17 87.50 44.03 88.00 L 33.42 88.00 C 27.34 85.97 21.39 82.44 18.23 76.65 C 17.62 75.24 16.97 73.84 16.31 72.45 C 16.01 71.02 15.71 69.57 15.17 68.20 C 15.10 66.59 15.08 64.99 15.05 63.38 C 7.99 60.94 2.36 54.84 0.66 47.56 L 0.00 47.53 L 0.00 36.29 C 1.02 33.94 2.20 31.67 3.26 29.35 C 5.63 25.96 8.73 23.20 12.33 21.18 C 16.22 19.07 20.64 18.81 24.94 18.29 C 25.58 16.74 26.10 15.14 26.66 13.55 C 29.13 7.96 33.78 3.53 39.48 1.31 C 40.68 0.91 41.88 0.47 43.06 0.00 Z" />
<path fill="#ffffff" opacity="1.00" d=" M 267.54 18.22 C 272.01 16.67 276.78 16.90 281.43 17.17 C 282.73 17.79 284.12 18.18 285.47 18.66 C 288.06 20.23 290.42 22.41 291.84 25.11 C 292.08 27.72 291.95 30.36 292.00 32.99 C 288.66 32.99 285.33 32.99 282.00 32.99 C 282.00 31.77 282.00 30.56 282.01 29.34 C 280.90 28.16 279.74 27.02 278.55 25.93 C 275.80 25.91 273.06 25.97 270.32 25.98 C 268.26 27.10 266.42 28.57 264.92 30.37 C 264.62 32.55 265.14 34.80 267.55 35.36 C 268.52 35.71 269.49 36.05 270.47 36.38 C 271.74 36.97 273.15 37.06 274.53 37.25 C 276.77 38.18 279.16 38.65 281.50 39.26 C 286.92 40.61 290.92 45.79 289.92 51.49 C 288.89 53.02 288.43 54.83 287.80 56.54 C 285.32 61.43 280.55 64.61 275.48 66.34 C 272.74 67.40 269.68 66.80 266.91 67.84 C 264.49 67.40 262.09 66.87 259.62 66.85 C 255.61 65.47 252.24 63.04 250.04 59.39 C 250.00 56.60 250.01 53.82 250.04 51.04 C 253.30 51.00 256.57 51.02 259.83 51.00 C 259.65 54.10 260.83 58.14 264.53 58.29 C 266.94 59.52 270.06 59.38 272.53 58.34 C 275.79 58.03 279.28 55.63 279.05 52.03 C 279.48 50.21 277.85 49.23 276.43 48.64 C 274.28 47.64 271.99 46.96 269.62 46.79 C 268.36 46.00 266.88 45.98 265.47 45.75 C 264.51 45.34 263.53 44.99 262.54 44.70 C 259.37 44.17 257.15 41.93 255.15 39.59 C 255.02 38.23 254.90 36.87 254.66 35.52 C 254.98 32.01 255.40 28.40 257.69 25.54 C 258.77 23.48 260.43 21.75 262.52 20.69 C 264.10 19.68 265.83 18.96 267.54 18.22 Z" />
<path fill="#ffffff" opacity="1.00" d=" M 169.25 23.57 C 170.18 21.85 170.24 19.86 170.59 17.97 C 182.12 18.09 193.65 17.88 205.18 18.08 C 204.12 20.99 204.08 24.14 202.90 27.00 C 194.97 26.89 187.05 26.97 179.13 26.95 C 178.23 30.44 178.26 34.14 176.77 37.46 C 182.86 37.45 188.95 37.44 195.04 37.44 C 196.20 37.30 197.22 37.86 198.24 38.32 C 196.29 39.43 197.16 41.81 196.88 43.60 C 196.06 44.71 195.66 46.77 193.87 46.52 C 187.68 46.55 181.50 46.52 175.32 46.50 C 175.03 47.28 174.46 48.84 174.17 49.62 C 174.18 53.90 172.26 57.85 171.89 62.08 C 171.78 63.45 171.16 64.70 170.79 66.00 C 167.50 66.00 164.21 66.00 160.91 66.00 C 160.98 64.54 161.04 63.08 161.13 61.63 C 162.40 60.19 161.96 58.22 162.14 56.49 C 163.26 55.44 162.94 53.83 163.23 52.47 C 164.47 49.32 164.64 45.83 165.17 42.50 C 166.19 41.45 165.95 39.94 166.21 38.63 C 167.29 33.67 168.64 28.65 169.25 23.57 Z" />
<path fill="#ffffff" opacity="1.00" d=" M 223.25 18.02 C 227.05 18.21 230.86 17.87 234.65 18.26 C 235.77 24.62 236.36 31.05 237.49 37.41 C 238.65 39.98 237.06 43.17 238.88 45.49 C 239.14 47.85 238.38 50.47 239.80 52.56 C 239.82 57.11 241.53 61.42 241.05 66.00 C 237.38 66.00 233.71 66.00 230.04 66.00 C 229.88 64.10 230.49 61.93 229.11 60.33 C 229.08 59.08 229.07 57.83 229.06 56.58 C 223.38 56.57 217.70 56.58 212.02 56.57 C 211.20 58.72 209.91 60.60 208.69 62.53 C 207.99 63.65 207.79 65.26 206.50 65.90 C 202.95 66.16 199.38 65.91 195.82 66.04 C 196.47 64.89 197.14 63.76 197.72 62.58 C 200.07 58.57 202.33 54.50 204.76 50.55 C 205.26 49.52 205.77 48.49 206.27 47.46 C 207.64 44.77 209.35 42.28 210.75 39.61 C 211.61 37.87 212.60 36.19 213.76 34.62 C 215.26 32.37 216.56 30.00 217.74 27.57 C 219.48 24.33 221.50 21.25 223.25 18.02 M 220.25 41.41 C 219.07 43.60 217.84 45.77 216.76 48.01 C 220.54 48.00 224.32 48.00 228.10 48.00 C 228.30 44.27 226.54 40.80 227.04 37.06 C 227.38 34.81 225.56 32.76 226.57 30.56 C 223.93 33.85 222.15 37.68 220.25 41.41 Z" />
<path fill="#ffffff" opacity="1.00" d=" M 300.82 22.48 C 301.09 20.94 300.69 18.11 303.00 18.11 C 315.77 18.08 328.54 18.04 341.31 18.14 C 341.03 18.71 340.46 19.86 340.18 20.44 C 339.89 22.65 339.35 24.81 338.80 26.97 C 334.36 27.02 329.89 26.76 325.46 27.08 C 323.29 27.95 324.10 30.69 323.65 32.50 C 323.02 33.73 322.94 35.12 322.70 36.45 C 320.33 46.05 318.72 55.87 316.59 65.54 C 313.29 66.62 309.37 65.72 305.83 65.99 C 306.13 63.45 307.01 61.02 307.22 58.47 C 308.39 55.31 308.89 51.92 309.26 48.57 C 310.44 45.71 310.70 42.55 311.28 39.53 C 312.21 38.00 311.99 36.19 312.17 34.49 C 313.17 33.44 312.94 31.92 313.22 30.62 C 313.73 29.45 314.09 28.23 314.28 26.96 C 309.49 26.93 304.69 26.97 299.90 26.93 C 300.05 25.42 299.91 23.80 300.82 22.48 Z" />
<path fill="#ffffff" opacity="1.00" d=" M 348.27 17.99 C 359.50 18.02 370.74 17.98 381.97 18.01 C 381.90 19.51 381.81 21.01 381.69 22.50 C 381.03 23.83 380.96 25.33 380.60 26.75 C 372.77 27.21 364.90 26.84 357.06 26.93 C 356.31 28.65 355.90 30.48 355.77 32.35 C 354.95 33.97 354.77 35.80 354.32 37.53 C 361.23 37.35 368.15 37.50 375.06 37.44 C 375.08 40.34 373.76 43.03 373.91 45.94 C 366.80 47.30 359.38 46.12 352.15 46.55 C 351.84 53.15 349.23 59.41 348.78 66.00 C 345.13 66.00 341.48 66.00 337.83 66.00 C 338.90 62.24 339.56 58.40 340.30 54.57 C 341.59 49.96 342.39 45.20 343.21 40.49 C 344.41 37.69 344.60 34.56 345.23 31.60 C 346.29 29.77 345.98 27.61 346.20 25.60 C 347.39 23.24 347.25 20.45 348.27 17.99 Z" />
<path fill="#ffffff" opacity="1.00" d=" M 391.17 18.01 C 402.82 18.19 414.47 18.03 426.12 18.09 C 426.09 21.10 424.98 23.92 424.61 26.88 C 416.11 27.05 407.62 26.87 399.12 26.98 C 398.61 30.37 398.54 34.09 396.79 37.08 C 404.56 36.90 412.33 37.04 420.10 37.00 C 419.97 38.54 420.03 40.15 419.25 41.54 C 419.00 43.06 418.60 44.55 417.92 45.94 C 410.30 45.83 402.67 45.92 395.04 45.90 C 395.00 47.05 394.95 48.20 394.89 49.35 C 393.84 50.51 394.03 52.12 393.77 53.54 C 393.21 54.65 392.89 55.83 392.79 57.08 C 401.59 57.06 410.38 57.14 419.17 57.03 C 418.77 60.04 417.69 62.92 417.82 66.00 C 405.54 66.00 393.26 66.00 380.98 66.00 C 381.04 64.87 381.11 63.74 381.20 62.62 C 382.69 58.10 383.68 53.32 384.25 48.57 C 386.15 42.38 387.06 35.91 388.31 29.56 C 389.48 25.77 389.91 21.78 391.17 18.01 Z" />
<path fill="#ffffff" opacity="1.00" d=" M 437.39 18.14 C 449.11 17.97 460.83 18.23 472.56 18.00 C 472.05 19.76 471.92 21.59 471.76 23.41 C 471.16 24.52 470.85 25.72 470.83 27.01 C 462.88 26.93 454.93 26.88 447.00 27.01 C 446.64 27.14 445.93 27.39 445.57 27.52 C 444.69 30.60 443.91 33.77 443.80 36.99 C 451.58 36.97 459.37 37.07 467.15 36.94 C 465.55 39.63 465.26 42.89 464.75 45.94 C 456.88 45.97 449.01 45.77 441.14 45.97 C 441.03 49.78 440.29 53.59 438.85 57.12 C 447.58 57.09 456.31 57.00 465.04 57.01 C 465.00 58.50 464.98 60.00 464.93 61.49 C 463.55 62.62 464.13 64.49 463.92 66.00 C 451.55 65.96 439.18 66.08 426.81 65.93 C 427.92 62.18 428.64 58.33 429.25 54.47 C 430.39 51.64 430.63 48.51 431.29 45.54 C 432.19 44.05 431.99 42.28 432.17 40.63 C 433.34 39.15 432.98 37.23 433.16 35.50 C 435.23 29.96 435.45 23.79 437.39 18.14 Z" />
<path fill="#ffffff" opacity="1.00" d=" M 479.06 18.04 C 492.09 18.15 505.11 17.97 518.14 18.02 C 517.94 21.03 516.68 23.85 516.84 26.91 C 511.90 27.08 506.97 26.97 502.04 27.00 C 502.01 27.62 501.95 28.87 501.92 29.50 C 500.07 31.40 501.81 34.40 500.21 36.47 C 499.96 37.84 500.04 39.34 499.13 40.51 C 499.04 41.50 498.95 42.50 498.88 43.50 C 497.13 45.46 498.77 48.40 497.21 50.46 C 496.97 51.85 497.02 53.35 496.12 54.53 C 496.00 55.87 495.92 57.20 495.83 58.54 C 494.57 60.80 494.64 63.56 493.81 66.00 C 490.10 65.99 486.39 66.03 482.68 65.97 C 482.98 65.36 483.59 64.14 483.90 63.54 C 483.96 62.52 484.02 61.51 484.10 60.50 C 485.89 58.93 484.12 56.09 485.87 54.51 C 485.99 53.20 486.11 51.89 486.27 50.59 C 487.11 48.95 486.88 46.99 487.88 45.42 C 487.96 44.11 488.01 42.81 488.09 41.51 C 489.50 40.24 488.84 38.21 489.13 36.56 C 490.23 35.50 489.93 33.91 490.20 32.56 C 491.45 30.93 490.91 28.84 491.05 26.95 C 486.37 27.03 481.70 26.95 477.02 27.04 C 478.67 25.14 477.21 22.27 478.91 20.46 C 478.95 19.85 479.02 18.64 479.06 18.04 Z" />
<path fill="#ffffff" opacity="1.00" d=" M 30.51 30.16 C 61.29 29.77 92.08 30.15 122.87 29.97 C 123.58 31.08 123.98 32.33 124.15 33.64 C 122.83 34.52 121.81 36.27 120.00 35.91 C 92.67 35.88 65.33 35.89 37.99 35.90 C 35.37 35.82 32.54 36.35 30.18 34.90 C 29.96 34.07 29.72 33.24 29.47 32.41 C 29.73 31.85 30.25 30.72 30.51 30.16 Z" />
<path fill="#ffffff" opacity="1.00" d=" M 53.15 45.03 C 54.37 44.53 55.61 43.99 56.97 44.10 C 83.61 44.13 110.26 44.07 136.91 44.13 C 139.81 44.24 141.58 49.28 138.02 49.93 C 110.64 50.08 83.24 49.97 55.86 49.99 C 53.87 50.52 52.97 48.78 51.98 47.46 C 52.38 46.66 52.77 45.85 53.15 45.03 Z" />
<path fill="#ffffff" opacity="1.00" d=" M 38.91 60.19 C 41.35 58.66 44.27 59.12 47.00 59.08 C 75.00 59.12 102.99 59.04 130.98 59.12 C 133.87 59.42 133.41 63.47 131.83 65.04 C 102.54 64.96 73.25 65.01 43.96 65.01 C 42.51 64.89 40.89 65.24 39.61 64.38 C 38.85 63.12 39.11 61.58 38.91 60.19 Z" />
</g>
</svg>
